<svg width="50" height="50" viewBox="0 0 50 50" fill="none" xmlns="http://www.w3.org/2000/svg">
<path d="M16.1812 36.0281C19.9531 38.425 24.4063 40.625 28.0469 40.625C28.8667 40.6602 29.6851 40.5283 30.4523 40.2371C31.2195 39.9459 31.9194 39.5016 32.5094 38.9313C36.0812 35.3531 32.7281 28.9344 29.4813 22.725L38.5453 13.6609C40.1597 14.701 41.7299 15.8082 43.2516 16.9797L45.3125 14.6078C43.8595 13.4744 42.3625 12.3986 40.825 11.3828L46.875 5.33281L44.6656 3.125L38.0922 9.69687C32.9109 6.7125 26.9859 4.625 23.6734 7.94375C20.4859 11.1359 22.8109 16.5875 25.6547 22.1359L15.8 31.9891C14.2987 30.9538 12.8392 29.8592 11.425 28.7078L9.375 31.0688C10.7256 32.1768 12.1144 33.2374 13.5391 34.2484L6.25 41.5391L6.25 3.125H3.125L3.125 43.75C3.125 44.5788 3.45424 45.3737 4.04029 45.9597C4.62634 46.5458 5.4212 46.875 6.25 46.875H46.875V43.75H8.45781L16.1812 36.0281ZM25.8828 10.1578C27.6562 8.37969 31.6531 9.71094 35.7844 12.0063L27.9797 19.8094C25.9281 15.7172 24.3078 11.7359 25.8828 10.1578ZM27.1656 25.0422C29.6344 29.7797 32.1375 34.8797 30.3016 36.7188C28.2516 38.7719 23.2359 36.6781 18.4703 33.7375L27.1656 25.0422Z" fill="#2B2963"/>
</svg>
