<svg width="50" height="50" viewBox="0 0 50 50" fill="none" xmlns="http://www.w3.org/2000/svg">
<path d="M32.175 10.3167C32.1036 10.1885 32.0059 10.0769 31.8883 9.98909C31.7707 9.9013 31.6359 9.83935 31.4927 9.80729C31.3495 9.77523 31.2012 9.77379 31.0574 9.80305C30.9136 9.83231 30.7776 9.89162 30.6583 9.9771L29.8563 10.55C29.4062 10.8543 28.8551 10.9708 28.3204 10.8746C27.7857 10.7784 27.3097 10.4771 26.9939 10.035C26.6782 9.59289 26.5476 9.04493 26.6301 8.50794C26.7126 7.97094 27.0015 7.48741 27.4354 7.16043L28.2375 6.58543C28.8339 6.15966 29.5134 5.86453 30.2316 5.71932C30.9499 5.57411 31.6906 5.58209 32.4056 5.74273C33.1205 5.90338 33.7935 6.21307 34.3806 6.65158C34.9677 7.09009 35.4556 7.64754 35.8125 8.28751L36.8708 10.1833L40.1938 6.86043C40.3859 6.66145 40.6158 6.50274 40.87 6.39355C41.1242 6.28437 41.3975 6.22689 41.6742 6.22449C41.9508 6.22209 42.2251 6.2748 42.4812 6.37955C42.7372 6.4843 42.9698 6.639 43.1654 6.83461C43.361 7.03022 43.5157 7.26282 43.6205 7.51886C43.7252 7.77489 43.7779 8.04922 43.7755 8.32585C43.7731 8.60247 43.7156 8.87585 43.6065 9.13002C43.4973 9.3842 43.3386 9.61408 43.1396 9.80626L38.9792 13.9667L40.6313 16.925C40.7053 17.0575 40.8073 17.1723 40.9303 17.2612C41.0533 17.3502 41.1942 17.4112 41.3433 17.44C41.4923 17.4687 41.6458 17.4646 41.7931 17.4278C41.9404 17.3911 42.0778 17.3226 42.1958 17.2271L42.9563 16.6125C43.3861 16.2724 43.9327 16.1153 44.4775 16.1754C45.0224 16.2355 45.5216 16.5079 45.8669 16.9336C46.2123 17.3592 46.376 17.9039 46.3225 18.4494C46.269 18.9949 46.0027 19.4974 45.5813 19.8479L44.8229 20.4625C44.233 20.9415 43.5453 21.2855 42.8083 21.4706C42.0713 21.6556 41.3027 21.6771 40.5564 21.5336C39.8102 21.39 39.1044 21.0849 38.4886 20.6397C37.8728 20.1945 37.3619 19.6199 36.9917 18.9563L35.9167 17.0292L32.7208 20.2229C32.5287 20.4219 32.2988 20.5806 32.0446 20.6898C31.7904 20.799 31.517 20.8565 31.2404 20.8589C30.9638 20.8613 30.6895 20.8086 30.4334 20.7038C30.1774 20.5991 29.9448 20.4444 29.7492 20.2487C29.5536 20.0531 29.3989 19.8205 29.2941 19.5645C29.1894 19.3085 29.1367 19.0341 29.1391 18.7575C29.1415 18.4809 29.1989 18.2075 29.3081 17.9533C29.4173 17.6992 29.576 17.4693 29.775 17.2771L33.8063 13.2458L32.175 10.3167ZM17.4917 29.4542C14.5417 30.0292 11.2375 30.1729 8.05417 30.2042C7.48542 32.5167 7.72084 34.1563 8.25625 35.2646C8.88542 36.5625 10.1 37.4813 11.8146 37.9104C15.3563 38.7917 20.5104 37.3896 23.9542 33.4646C24.1331 33.2543 24.3521 33.0816 24.5984 32.9566C24.8446 32.8317 25.1133 32.757 25.3887 32.7368C25.6641 32.7166 25.9408 32.7514 26.2027 32.8391C26.4645 32.9268 26.7063 33.0657 26.914 33.2477C27.1217 33.4297 27.2912 33.6512 27.4125 33.8993C27.5338 34.1474 27.6046 34.4171 27.6207 34.6928C27.6369 34.9685 27.5981 35.2446 27.5065 35.5051C27.415 35.7657 27.2725 36.0054 27.0875 36.2104C22.7167 41.1958 16.0042 43.2479 10.8063 41.9521C8.15209 41.2896 5.78125 39.7104 4.50834 37.0813C3.24375 34.4708 3.23334 31.1896 4.52917 27.4438C6.27917 22.3958 8.94167 19.2333 11.6271 17.2646C13.6222 15.8081 15.9095 14.8017 18.3313 14.3146C21.7188 13.6208 24.7583 14.5729 26.4563 16.8021C28.1813 19.0688 28.1229 22.15 26.2646 24.6917C24.2229 27.4792 20.8896 28.7917 17.4917 29.4542ZM19.1667 18.3958C17.3336 18.7629 15.6021 19.5235 14.0917 20.625C12.5896 21.7271 10.9854 23.4021 9.65417 26.0083C12.1688 25.9458 14.5708 25.7792 16.6938 25.3625C19.725 24.7729 21.7896 23.7521 22.9021 22.2313C23.7979 21.0042 23.6229 19.9604 23.1417 19.3271C22.6313 18.6604 21.375 17.9438 19.1667 18.3958Z" fill="#2B2963"/>
</svg>
