<svg width="50" height="50" viewBox="0 0 50 50" fill="none" xmlns="http://www.w3.org/2000/svg">
<path d="M27.3531 4.69375C22.0937 0.749999 14.5593 4.20937 14.1218 10.7656L13.9031 14.0625H11.7187C11.0971 14.0625 10.501 14.3094 10.0614 14.749C9.62188 15.1885 9.37495 15.7846 9.37495 16.4062C9.37495 17.0279 9.62188 17.624 10.0614 18.0635C10.501 18.5031 11.0971 18.75 11.7187 18.75H13.5875L12.275 38.4156C12.2348 39.0201 12.0545 39.607 11.7485 40.1299C11.4424 40.6527 11.0189 41.0972 10.5115 41.4283C10.0041 41.7593 9.42662 41.9677 8.82476 42.0371C8.2229 42.1065 7.61315 42.035 7.0437 41.8281L6.27183 41.5469C5.98251 41.4416 5.67529 41.3944 5.36771 41.4078C5.06014 41.4213 4.75822 41.4952 4.47921 41.6254C4.2002 41.7555 3.94956 41.9393 3.74159 42.1664C3.53362 42.3934 3.3724 42.6591 3.26714 42.9484C3.16188 43.2378 3.11463 43.545 3.1281 43.8526C3.14157 44.1601 3.21548 44.462 3.34563 44.7411C3.47578 45.0201 3.65961 45.2707 3.88662 45.4787C4.11363 45.6866 4.37938 45.8479 4.6687 45.9531L5.4437 46.2344C6.69643 46.6895 8.03785 46.847 9.36193 46.6945C10.686 46.5419 11.9565 46.0835 13.0729 45.3554C14.1893 44.6273 15.121 43.6495 15.7944 42.4993C16.4679 41.3491 16.8645 40.058 16.9531 38.7281L18.2875 18.75H22.6562C23.2778 18.75 23.8739 18.5031 24.3135 18.0635C24.753 17.624 25 17.0279 25 16.4062C25 15.7846 24.753 15.1885 24.3135 14.749C23.8739 14.3094 23.2778 14.0625 22.6562 14.0625L18.6 14.0625L18.7968 11.0781C18.8399 10.4323 19.0567 9.81012 19.4241 9.27728C19.7915 8.74444 20.2961 8.32073 20.8844 8.05089C21.4727 7.78106 22.123 7.67512 22.7665 7.74427C23.4101 7.81342 24.023 8.05509 24.5406 8.44375L25.1562 8.90625C25.4024 9.09092 25.6826 9.22529 25.9808 9.30167C26.2789 9.37806 26.5892 9.39497 26.8939 9.35144C27.1986 9.30792 27.4917 9.2048 27.7566 9.04799C28.0214 8.89117 28.2528 8.68373 28.4375 8.4375C28.6221 8.19127 28.7565 7.91108 28.8329 7.61292C28.9093 7.31477 28.9262 7.00448 28.8826 6.69979C28.8391 6.3951 28.736 6.10196 28.5792 5.83712C28.4224 5.57228 28.2149 5.34092 27.9687 5.15625L27.3531 4.69375Z" fill="#2B2963"/>
<path d="M30.1125 23.9531C29.7414 23.3504 29.2385 22.8396 28.6418 22.459C28.045 22.0784 27.3698 21.8379 26.6668 21.7555C25.9638 21.6731 25.2512 21.751 24.5826 21.9833C23.914 22.2156 23.3067 22.5963 22.8063 23.0969L21.7813 24.1219C21.3673 24.5662 21.1419 25.1538 21.1526 25.761C21.1633 26.3682 21.4093 26.9475 21.8387 27.3769C22.2681 27.8064 22.8474 28.0523 23.4546 28.063C24.0618 28.0738 24.6495 27.8484 25.0938 27.4344L26.1219 26.4094L29.8469 32.4625L22.5625 39.75C22.1485 40.1943 21.9231 40.7819 21.9338 41.3891C21.9446 41.9963 22.1905 42.5756 22.6199 43.0051C23.0494 43.4345 23.6287 43.6805 24.2359 43.6912C24.8431 43.7019 25.4307 43.4765 25.875 43.0625L32.3719 36.5687L35.5125 41.6719C35.8837 42.2746 36.3865 42.7854 36.9833 43.166C37.58 43.5466 38.2553 43.7871 38.9583 43.8695C39.6613 43.9519 40.3738 43.874 41.0424 43.6417C41.711 43.4094 42.3183 43.0287 42.8188 42.5281L43.8438 41.5031C44.2578 41.0588 44.4831 40.4712 44.4724 39.864C44.4617 39.2568 44.2157 38.6775 43.7863 38.248C43.3569 37.8186 42.7776 37.5727 42.1704 37.5619C41.5632 37.5512 40.9756 37.7766 40.5313 38.1906L39.5031 39.2156L35.7781 33.1625L43.0625 25.875C43.4765 25.4307 43.7019 24.8431 43.6912 24.2359C43.6805 23.6287 43.4345 23.0493 43.0051 22.6199C42.5757 22.1905 41.9963 21.9445 41.3891 21.9338C40.7819 21.9231 40.1943 22.1485 39.75 22.5625L33.25 29.0531L30.1125 23.9531Z" fill="#2B2963"/>
</svg>
