<svg width="50" height="50" viewBox="0 0 50 50" fill="none" xmlns="http://www.w3.org/2000/svg">
<path d="M23.9583 39.7917C23.5417 42.0833 22.7083 43.75 21.25 44.7917C19.7917 45.8333 17.9167 46.0417 15.625 45.625C14.7917 45.4167 13.125 45.2083 12.5 44.7917L13.5417 41.6667C14.1667 41.875 15.4167 42.2917 16.0417 42.2917C18.3333 42.7083 19.5833 41.6667 20 39.1667L25 10.8333C25.4167 8.33333 26.4583 6.66667 27.9167 5.41667C29.375 4.375 31.4583 3.95833 33.75 4.375C34.5833 4.58333 36.25 4.79167 37.5 5.41667L36.4583 8.33333C36.0417 8.125 34.5833 7.91667 33.9583 7.70833C31.25 7.29167 29.7917 8.54167 29.1667 11.6667L23.9583 39.7917Z" fill="#2B2963"/>
</svg>
