<svg width="50" height="50" viewBox="0 0 50 50" fill="none" xmlns="http://www.w3.org/2000/svg">
<path d="M8.33329 14.5833C7.22822 14.5833 6.16842 15.0223 5.38701 15.8037C4.60561 16.5851 4.16663 17.6449 4.16663 18.75L4.16663 22.9166C4.16663 24.0217 4.60561 25.0815 5.38701 25.8629C6.16842 26.6443 7.22822 27.0833 8.33329 27.0833H12.5L12.5 31.25H4.16663V35.4166H12.5C13.605 35.4166 14.6648 34.9777 15.4462 34.1963C16.2276 33.4149 16.6666 32.355 16.6666 31.25V27.0833C16.6666 25.9782 16.2276 24.9184 15.4462 24.137C14.6648 23.3556 13.605 22.9166 12.5 22.9166H8.33329V18.75H16.6666V14.5833H8.33329ZM29.1666 14.5833V18.75H27.0833V31.25H29.1666V35.4166H20.8333V31.25H22.9166V18.75H20.8333V14.5833H29.1666ZM33.3333 14.5833V35.4166H37.5V25L41.6666 35.4166H45.8333V14.5833H41.6666V25L37.5 14.5833H33.3333Z" fill="#2B2963"/>
</svg>
