<svg width="50" height="50" viewBox="0 0 50 50" fill="none" xmlns="http://www.w3.org/2000/svg">
<path d="M8.33335 14.5833C7.22828 14.5833 6.16848 15.0223 5.38708 15.8037C4.60567 16.5851 4.16669 17.6449 4.16669 18.75L4.16669 31.25C4.16669 32.3551 4.60567 33.4149 5.38708 34.1963C6.16848 34.9777 7.22828 35.4167 8.33335 35.4167H12.5C13.6051 35.4167 14.6649 34.9777 15.4463 34.1963C16.2277 33.4149 16.6667 32.3551 16.6667 31.25V29.1667H12.5L12.5 31.25H8.33335V18.75H12.5V20.8333H16.6667V18.75C16.6667 17.6449 16.2277 16.5851 15.4463 15.8037C14.6649 15.0223 13.6051 14.5833 12.5 14.5833H8.33335ZM22.9167 14.5833C21.8116 14.5833 20.7518 15.0223 19.9704 15.8037C19.189 16.5851 18.75 17.6449 18.75 18.75V31.25C18.75 32.3551 19.189 33.4149 19.9704 34.1963C20.7518 34.9777 21.8116 35.4167 22.9167 35.4167H27.0834C28.1884 35.4167 29.2482 34.9777 30.0296 34.1963C30.811 33.4149 31.25 32.3551 31.25 31.25V18.75C31.25 17.6449 30.811 16.5851 30.0296 15.8037C29.2482 15.0223 28.1884 14.5833 27.0834 14.5833H22.9167ZM22.9167 18.75H27.0834V31.25H22.9167V18.75ZM37.5 14.5833C36.395 14.5833 35.3351 15.0223 34.5537 15.8037C33.7723 16.5851 33.3334 17.6449 33.3334 18.75V22.9167C33.3334 24.0217 33.7723 25.0816 34.5537 25.863C35.3351 26.6444 36.395 27.0833 37.5 27.0833H41.6667V31.25L33.3334 31.25V35.4167H41.6667C42.7718 35.4167 43.8316 34.9777 44.613 34.1963C45.3944 33.4149 45.8334 32.3551 45.8334 31.25V27.0833C45.8334 25.9783 45.3944 24.9185 44.613 24.1371C43.8316 23.3557 42.7718 22.9167 41.6667 22.9167H37.5V18.75L45.8334 18.75V14.5833H37.5Z" fill="#2B2963"/>
</svg>
