<svg width="50" height="50" viewBox="0 0 50 50" fill="none" xmlns="http://www.w3.org/2000/svg">
<path d="M37.5 14.5833C35.2083 14.5833 33.3333 16.4583 33.3333 18.75V31.25C33.3333 33.5417 35.2083 35.4167 37.5 35.4167H41.6666C43.9583 35.4167 45.8333 33.5417 45.8333 31.25V22.9167H41.6666V31.25H37.5V18.75H45.8333V14.5833H37.5ZM4.16663 14.5833V35.4167H16.6666V31.25H8.33329V14.5833H4.16663ZM22.9166 14.5833C20.625 14.5833 18.75 16.4583 18.75 18.75V31.25C18.75 33.5417 20.625 35.4167 22.9166 35.4167H27.0833C29.375 35.4167 31.25 33.5417 31.25 31.25V18.75C31.25 16.4583 29.375 14.5833 27.0833 14.5833H22.9166ZM22.9166 18.75H27.0833V31.25H22.9166V18.75Z" fill="#2B2963"/>
</svg>
