<svg width="50" height="50" viewBox="0 0 50 50" fill="none" xmlns="http://www.w3.org/2000/svg">
<path d="M16.9209 0C16.4236 0 15.9467 0.197544 15.595 0.549175C15.2434 0.900805 15.0459 1.37772 15.0459 1.875C15.0482 2.25871 15.1682 2.63247 15.3896 2.94583L10.7855 8.28542C10.5777 8.22481 10.3623 8.19395 10.1459 8.19375C9.54176 8.1943 8.96258 8.43467 8.53561 8.86204C8.10863 9.2894 7.86879 9.8688 7.86879 10.4729L7.88129 10.6625L3.81879 13.3375C3.50427 13.1152 3.12893 12.9952 2.74379 12.9937C2.24651 12.9937 1.7696 13.1913 1.41797 13.5429C1.06634 13.8946 0.868792 14.3715 0.868792 14.8687C0.86959 15.1763 0.946017 15.4789 1.09134 15.7499C1.23666 16.0209 1.44642 16.2521 1.70213 16.4229L0.958375 30.3875C0.722707 30.511 0.525329 30.6967 0.38762 30.9244C0.249911 31.1521 0.177118 31.4131 0.177126 31.6792C0.176851 31.8724 0.214708 32.0638 0.288527 32.2424C0.362347 32.4209 0.470677 32.5832 0.607311 32.7198C0.743945 32.8564 0.906197 32.9648 1.08477 33.0386C1.26334 33.1124 1.45473 33.1503 1.64796 33.15C1.71413 33.1483 1.78017 33.1434 1.84588 33.1354L12.0313 43.5854L12.023 43.6917C12.023 44.0812 12.1777 44.4548 12.4531 44.7302C12.7286 45.0057 13.1022 45.1604 13.4917 45.1604C13.7774 45.1611 14.0571 45.0778 14.2959 44.9208L19.8188 47.8917C19.8088 47.9698 19.8032 48.0484 19.8021 48.1271C19.8027 48.624 20.0005 49.1004 20.352 49.4516C20.7036 49.8027 21.1802 50 21.6771 50C22.1447 49.9993 22.5952 49.8239 22.9401 49.5083C23.2851 49.1926 23.4996 48.7594 23.5417 48.2937L38.5063 43.925C38.6803 44.1577 38.906 44.3468 39.1656 44.4773C39.4252 44.6078 39.7116 44.6762 40.0021 44.6771C40.4994 44.6771 40.9763 44.4795 41.3279 44.1279C41.6796 43.7763 41.8771 43.2994 41.8771 42.8021C41.8743 42.3808 41.7298 41.9728 41.4667 41.6437L47.9459 27.3833C48.4428 27.3828 48.9192 27.185 49.2704 26.8334C49.6215 26.4819 49.8188 26.0053 49.8188 25.5083C49.8171 25.0763 49.6663 24.6581 49.3919 24.3244C49.1174 23.9907 48.7362 23.762 48.3125 23.6771L46.2813 16.8875C46.4485 16.7503 46.5831 16.5776 46.6754 16.382C46.7676 16.1863 46.8152 15.9726 46.8146 15.7562C46.8146 15.3667 46.6599 14.9931 46.3844 14.7177C46.109 14.4422 45.7354 14.2875 45.3459 14.2875C45.2501 14.2913 45.1548 14.3018 45.0605 14.3187L35.7563 2.91667C35.7689 2.83387 35.7766 2.75038 35.7792 2.66667C35.7795 2.47361 35.7417 2.2824 35.668 2.10396C35.5943 1.92552 35.4862 1.76336 35.3498 1.62676C35.2133 1.49015 35.0513 1.38178 34.873 1.30783C34.6947 1.23389 34.5035 1.19583 34.3105 1.19583C34.0904 1.1959 33.8731 1.24579 33.675 1.34177C33.477 1.43774 33.3032 1.5773 33.1667 1.75L18.6834 1.25C18.5544 0.885282 18.3158 0.569374 18.0003 0.345586C17.6848 0.121799 17.3077 0.00108719 16.9209 0ZM18.6709 2.5375L32.8896 3.02708C32.9756 3.36462 33.1796 3.66022 33.4646 3.86042L33.1292 5.46042C32.7902 5.53816 32.4733 5.69205 32.2026 5.91043C31.9319 6.12881 31.7144 6.40594 31.5667 6.72083L15.65 8.575L16.7167 3.73333C16.7845 3.74154 16.8526 3.7464 16.9209 3.74792C17.3006 3.74741 17.6713 3.63162 17.9838 3.41585C18.2962 3.20008 18.5359 2.89243 18.6709 2.5375ZM34.9625 3.97917L44.0375 15.0979C43.9338 15.3019 43.8796 15.5274 43.8792 15.7562C43.879 15.9578 43.9205 16.1572 44.0012 16.3418C44.0819 16.5265 44.1999 16.6924 44.348 16.8292L43.6042 18.9167L35.6459 8.7375C35.8186 8.40991 35.9094 8.04534 35.9105 7.675C35.9101 7.21083 35.7676 6.7579 35.502 6.37721C35.2364 5.99653 34.8606 5.70638 34.425 5.54583L34.7355 4.06875C34.8136 4.04275 34.8901 4.01214 34.9646 3.97708L34.9625 3.97917ZM15.9375 4.28125L14.975 8.65417L11.8917 9.0125L11.875 8.99167L15.9375 4.28125ZM31.675 9.29792L27.0605 27.2979C26.9345 27.3272 26.8106 27.3647 26.6896 27.4104L14.7855 13.9417L20.3334 13.3229C20.4577 13.5564 20.6432 13.7517 20.87 13.8878C21.0968 14.024 21.3563 14.0959 21.6209 14.0958C22.0101 14.0958 22.3833 13.9414 22.6587 13.6664C22.9341 13.3914 23.0891 13.0183 23.0896 12.6292C23.0886 12.5168 23.0746 12.405 23.048 12.2958L30.8542 9.39375L31.675 9.29792ZM28.1646 9.70625L22.7688 11.7146C22.6321 11.5416 22.458 11.4019 22.2595 11.3059C22.0611 11.2099 21.8434 11.1602 21.623 11.1604C21.2334 11.1604 20.8598 11.3152 20.5844 11.5906C20.309 11.866 20.1542 12.2396 20.1542 12.6292L20.1584 12.6937L14.6084 13.3146L15.0667 11.2333L28.1646 9.70625ZM34.1584 9.96667L42.8375 21.0708L41.0459 26.1062L30.1438 28.6437C29.988 28.3729 29.7896 28.1288 29.5563 27.9208L34.1584 9.96667ZM14.3896 11.3125L14.0063 13.0625L12.6417 11.5167L14.3896 11.3125ZM8.36462 11.8854C8.4888 12.0447 8.63548 12.185 8.80004 12.3021L8.47504 14.0021L4.56254 14.4396L4.55212 14.3937L8.36462 11.8854ZM10.025 12.7396L10.1459 12.75L10.2938 12.7458L11.1417 13.7042L9.81046 13.8521L10.025 12.7396ZM11.6625 14.2917L13.323 16.1708L12.6084 19.4208C12.229 19.4348 11.8698 19.5952 11.6061 19.8682C11.3424 20.1413 11.1946 20.5058 11.1938 20.8854C11.1932 21.099 11.2396 21.3101 11.3296 21.5037C11.4196 21.6974 11.551 21.869 11.7146 22.0062L6.80837 29.5354L9.68338 14.5146L11.6625 14.2917ZM8.35004 14.6625L5.23338 30.9292C4.97853 30.9827 4.73762 31.0886 4.526 31.2404C4.31437 31.3921 4.13667 31.5862 4.00421 31.8104L3.11463 31.6437C3.10892 31.367 3.0246 31.0977 2.8715 30.8671C2.7184 30.6365 2.50286 30.4543 2.25004 30.3417L2.97296 16.7271C3.38959 16.6748 3.7766 16.4842 4.072 16.1857C4.36739 15.8873 4.55407 15.4984 4.60213 15.0812L8.35004 14.6625ZM13.85 16.7667L24.95 29.3271L24.9084 29.525L6.95004 31.4521C6.82514 31.3287 6.68514 31.2216 6.53337 31.1333L12.2917 22.3021C12.414 22.335 12.5401 22.3518 12.6667 22.3521C13.0555 22.3515 13.4283 22.1968 13.7032 21.9219C13.9781 21.647 14.1328 21.2742 14.1334 20.8854C14.1342 20.5979 14.05 20.3165 13.8913 20.0766C13.7327 19.8368 13.5067 19.6492 13.2417 19.5375L13.85 16.7667ZM44.9125 17.1583L45.0313 17.1854L46.7542 22.9479L44.073 19.5187L44.9125 17.1583ZM43.3084 21.6708L45.8917 24.9792L41.7896 25.9333L43.3084 21.6708ZM46.0375 26.925L40.1459 39.8917L40.2646 31.7979C40.5832 31.742 40.8719 31.5756 41.08 31.328C41.288 31.0803 41.4021 30.7672 41.4021 30.4437C41.4014 30.1854 41.3279 29.9325 41.1901 29.714C41.0523 29.4955 40.8558 29.3203 40.623 29.2083L41.0188 28.0937L46.0375 26.925ZM40.275 28.2667L39.9875 29.075C39.6309 29.0858 39.2924 29.2349 39.0435 29.4907C38.7947 29.7465 38.6551 30.089 38.6542 30.4458C38.6543 30.7391 38.7482 31.0246 38.9221 31.2608C39.096 31.4969 39.3408 31.6712 39.6209 31.7583L39.4855 41.0042C39.025 41.1385 38.6336 41.4442 38.3917 41.8583L30.2167 40.0938C30.2134 39.7064 30.0572 39.336 29.7821 39.0633C29.507 38.7905 29.1353 38.6375 28.748 38.6375C28.3718 38.6386 28.0104 38.784 27.7383 39.0437C27.4662 39.3034 27.3041 39.6576 27.2855 40.0333L25.2834 40.5229L27.748 32.8979C28.4068 32.8851 29.0406 32.643 29.5403 32.2133C30.0399 31.7837 30.3741 31.1933 30.4855 30.5437L40.275 28.2667ZM25.2125 31.4333C25.3936 31.7548 25.6339 32.039 25.9209 32.2708L23.0813 41.0625L16.9834 42.5562L7.33963 33.4875L7.39379 33.3458L25.2125 31.4333ZM3.54588 33.0333L3.77296 33.075C3.78785 33.1602 3.80802 33.2444 3.83338 33.3271L3.54588 33.0333ZM4.99796 34.5229C5.19587 34.594 5.40433 34.6314 5.61462 34.6333L5.73963 34.6292L13.8688 42.275C13.7466 42.2414 13.6205 42.2239 13.4938 42.2229C13.2196 42.2229 12.951 42.3002 12.7188 42.4458L4.99796 34.5229ZM27.3938 40.6687C27.506 40.9358 27.6941 41.164 27.9348 41.3251C28.1756 41.4862 28.4583 41.5731 28.748 41.575C29.0289 41.5762 29.3041 41.4962 29.5407 41.3446C29.7772 41.1931 29.9649 40.9765 30.0813 40.7208L37.275 42.275L23.4105 46.3229L25.05 41.2417L27.3938 40.6687ZM22.85 41.7812L21.398 46.275C21.2752 46.2961 21.1546 46.3282 21.0375 46.3708L17.5417 43.0812L22.85 41.7812ZM15.3084 43.6292L16.2375 44.5042L14.9563 43.8146L14.9605 43.7125L15.3084 43.6292Z" fill="#2B2963"/>
</svg>
