<svg width="50" height="50" viewBox="0 0 50 50" fill="none" xmlns="http://www.w3.org/2000/svg">
<path d="M31.25 37.5C31.25 38.6051 31.689 39.6649 32.4704 40.4463C33.2518 41.2277 34.3116 41.6667 35.4167 41.6667C36.5217 41.6667 37.5815 41.2277 38.3629 40.4463C39.1443 39.6649 39.5833 38.6051 39.5833 37.5C39.5833 36.3949 39.1443 35.3351 38.3629 34.5537C37.5815 33.7723 36.5217 33.3333 35.4167 33.3333C34.3116 33.3333 33.2518 33.7723 32.4704 34.5537C31.689 35.3351 31.25 36.3949 31.25 37.5Z" stroke="#2B2963" stroke-width="4.16667" stroke-linecap="round" stroke-linejoin="round"/>
<path d="M6.25 27.0833C6.25 27.0833 8.33333 8.33334 14.5833 8.33334C19.75 8.33334 26.3396 28.2604 32 35.1729M39.0583 35.4958C40.5208 33.6625 42.0847 28.0806 43.75 18.75" stroke="#2B2963" stroke-width="4.16667" stroke-linecap="round" stroke-linejoin="round"/>
</svg>
