<svg width="50" height="50" viewBox="0 0 50 50" fill="none" xmlns="http://www.w3.org/2000/svg">
<path d="M10.4167 12.5C10.4167 13.6051 10.8557 14.6649 11.6371 15.4463C12.4185 16.2277 13.4783 16.6667 14.5834 16.6667C15.6884 16.6667 16.7482 16.2277 17.5296 15.4463C18.311 14.6649 18.75 13.6051 18.75 12.5C18.75 11.3949 18.311 10.3351 17.5296 9.55373C16.7482 8.77233 15.6884 8.33334 14.5834 8.33334C13.4783 8.33334 12.4185 8.77233 11.6371 9.55373C10.8557 10.3351 10.4167 11.3949 10.4167 12.5Z" stroke="#2B2963" stroke-width="4.16667" stroke-linecap="round" stroke-linejoin="round"/>
<path d="M6.25 31.25C6.25 31.25 7.53333 19.7 11.1083 14.7292M17.9937 14.8167C23.6542 21.7188 30.2479 41.6667 35.4167 41.6667C39.5833 41.6667 42.3611 35.4167 43.75 22.9167" stroke="#2B2963" stroke-width="4.16667" stroke-linecap="round" stroke-linejoin="round"/>
</svg>
